<svg width="130" height="46" viewBox="0 0 130 46" fill="none" xmlns="http://www.w3.org/2000/svg">
<path d="M55.3253 20.6C55.3253 23.3334 55.0183 25.4267 54.4053 26.88C53.8053 28.3334 52.8923 29.42 51.6653 30.14C51.3183 30.3534 50.9783 30.46 50.6453 30.46C50.2723 30.46 49.9653 30.3334 49.7253 30.08C49.4983 29.8267 49.3853 29.5267 49.3853 29.18C49.3853 28.9 49.4653 28.6334 49.6253 28.38C49.7853 28.1134 50.0323 27.88 50.3653 27.68C50.9923 27.3067 51.4723 26.6134 51.8053 25.6C52.1523 24.5867 52.3253 23.0934 52.3253 21.12V17.8C52.3253 17.3334 52.4453 16.9734 52.6853 16.72C52.9383 16.4667 53.2983 16.34 53.7653 16.34H61.1253C61.5923 16.34 61.9453 16.4667 62.1853 16.72C62.4383 16.9734 62.5653 17.3334 62.5653 17.8V29.02C62.5653 29.4867 62.4253 29.86 62.1453 30.14C61.8653 30.42 61.4983 30.56 61.0453 30.56C60.5783 30.56 60.2053 30.42 59.9253 30.14C59.6453 29.86 59.5053 29.4867 59.5053 29.02V18.8H55.3253V20.6Z" fill="white"/>
<path d="M73.0443 30.68C71.6443 30.68 70.4243 30.3867 69.3843 29.8C68.3573 29.2 67.5643 28.36 67.0043 27.28C66.4443 26.1867 66.1643 24.9067 66.1643 23.44C66.1643 21.9734 66.4443 20.7 67.0043 19.62C67.5643 18.5267 68.3573 17.6867 69.3843 17.1C70.4243 16.5134 71.6443 16.22 73.0443 16.22C74.4443 16.22 75.6573 16.5134 76.6843 17.1C77.7243 17.6867 78.5243 18.5267 79.0843 19.62C79.6443 20.7 79.9243 21.9734 79.9243 23.44C79.9243 24.9067 79.6443 26.1867 79.0843 27.28C78.5243 28.36 77.7243 29.2 76.6843 29.8C75.6573 30.3867 74.4443 30.68 73.0443 30.68ZM73.0443 28.26C74.2173 28.26 75.1373 27.8467 75.8043 27.02C76.4843 26.1934 76.8243 25 76.8243 23.44C76.8243 21.88 76.4913 20.6934 75.8243 19.88C75.1573 19.0534 74.2313 18.64 73.0443 18.64C71.8573 18.64 70.9313 19.0534 70.2643 19.88C69.6113 20.6934 69.2843 21.88 69.2843 23.44C69.2843 25 69.6173 26.1934 70.2843 27.02C70.9513 27.8467 71.8713 28.26 73.0443 28.26Z" fill="white"/>
<path d="M84.8463 30.56C84.3793 30.56 84.0063 30.42 83.7263 30.14C83.4463 29.86 83.3063 29.4867 83.3063 29.02V17.8C83.3063 17.36 83.4393 17.0067 83.7063 16.74C83.9733 16.4734 84.3263 16.34 84.7663 16.34H91.8063C92.2463 16.34 92.5793 16.4534 92.8063 16.68C93.0333 16.8934 93.1463 17.1867 93.1463 17.56C93.1463 17.9467 93.0333 18.2534 92.8063 18.48C92.5793 18.6934 92.2463 18.8 91.8063 18.8H86.3663V29.02C86.3663 29.4867 86.2263 29.86 85.9463 30.14C85.6663 30.42 85.2993 30.56 84.8463 30.56Z" fill="white"/>
<path d="M104.969 17.24C105.222 16.88 105.482 16.6334 105.749 16.5C106.016 16.3534 106.409 16.28 106.929 16.28C107.396 16.28 107.756 16.4067 108.009 16.66C108.262 16.9134 108.389 17.2734 108.389 17.74V29.08C108.389 29.5467 108.249 29.92 107.969 30.2C107.689 30.48 107.316 30.62 106.849 30.62C106.382 30.62 106.009 30.48 105.729 30.2C105.462 29.92 105.329 29.5467 105.329 29.08V20.88L99.5093 29.32C99.1363 29.8534 98.7963 30.2067 98.4893 30.38C98.1963 30.54 97.8023 30.62 97.3093 30.62C96.8423 30.62 96.4823 30.4934 96.2293 30.24C95.9763 29.9867 95.8493 29.6267 95.8493 29.16V17.82C95.8493 17.3534 95.9893 16.98 96.2693 16.7C96.5493 16.42 96.9223 16.28 97.3893 16.28C97.8563 16.28 98.2223 16.42 98.4893 16.7C98.7693 16.98 98.9093 17.3534 98.9093 17.82V26L104.969 17.24Z" fill="white"/>
<path d="M121.881 30.56C121.414 30.56 121.041 30.42 120.761 30.14C120.494 29.86 120.361 29.4867 120.361 29.02V25.16H118.861C117.861 25.16 117.101 25.6267 116.581 26.56L114.741 29.78C114.594 30.0334 114.408 30.2267 114.181 30.36C113.968 30.48 113.741 30.54 113.501 30.54C113.114 30.54 112.761 30.4067 112.441 30.14C112.134 29.86 111.981 29.5334 111.981 29.16C111.981 28.8934 112.054 28.64 112.201 28.4L113.381 26.44C113.701 25.9067 114.068 25.4867 114.481 25.18C114.908 24.86 115.348 24.64 115.801 24.52C114.734 24.3334 113.894 23.8734 113.281 23.14C112.681 22.3934 112.381 21.56 112.381 20.64C112.381 19.2667 112.828 18.2067 113.721 17.46C114.628 16.7134 115.908 16.34 117.561 16.34H121.961C122.428 16.34 122.788 16.4667 123.041 16.72C123.294 16.9734 123.421 17.3334 123.421 17.8V29.02C123.421 29.4867 123.281 29.86 123.001 30.14C122.721 30.42 122.348 30.56 121.881 30.56ZM120.401 18.72H117.981C117.101 18.72 116.434 18.9067 115.981 19.28C115.528 19.6534 115.301 20.1734 115.301 20.84C115.301 21.5067 115.508 22 115.921 22.32C116.334 22.64 116.981 22.8 117.861 22.8H120.401V18.72Z" fill="white"/>
<path d="M23.5 46C36.2025 46 46.5 35.7025 46.5 23C46.5 10.2975 36.2025 0 23.5 0C10.7975 0 0.5 10.2975 0.5 23C0.5 35.7025 10.7975 46 23.5 46Z" fill="#D59FFF"/>
<path d="M29.5 18H32C32.8284 18 33.5 17.3284 33.5 16.5C33.5 15.6716 32.8284 15 32 15H24C23.1716 15 22.5 15.6716 22.5 16.5C22.5 17.3284 23.1716 18 24 18H26.5V24.5C26.5 25.3284 27.1716 26 28 26C28.8284 26 29.5 25.3284 29.5 24.5V18Z" fill="white"/>
<path d="M15.5 21.5C15.5 20.6716 16.1716 20 17 20C17.8284 20 18.5 20.6716 18.5 21.5V29.5C18.5 30.3284 17.8284 31 17 31C16.1716 31 15.5 30.3284 15.5 29.5V21.5Z" fill="white"/>
<path d="M15.5 16.5C15.5 15.6716 16.1716 15 17 15C17.8284 15 18.5 15.6716 18.5 16.5C18.5 17.3284 17.8284 18 17 18C16.1716 18 15.5 17.3284 15.5 16.5Z" fill="white"/>
<path d="M28 28C27.1716 28 26.5 28.6716 26.5 29.5C26.5 30.3284 27.1716 31 28 31C28.8284 31 29.5 30.3284 29.5 29.5C29.5 28.6716 28.8284 28 28 28Z" fill="white"/>
</svg>
